<svg xmlns="http://www.w3.org/2000/svg" viewBox="0 0 32 32" fill="none">
  <path d="M16 3l-1.3 2.8c-.4.1-.7.3-1.1.5l-2.9-1.2-1.2 2.1 2.3 2c-.1.3-.2.6-.3 1l-3 .3v2.4l3 .3c.1.4.2.7.3 1l-2.3 2 1.2 2.1 2.9-1.2c.4.2.7.4 1.1.5L16 21l1.3-2.8c.4-.1.7-.3 1.1-.5l2.9 1.2 1.2-2.1-2.3-2c.1-.3.2-.6.3-1l3-.3v-2.4l-3-.3c-.1-.4-.2-.7-.3-1l2.3-2-1.2-2.1-2.9 1.2c-.4-.2-.7-.4-1.1-.5L16 3z" stroke="#5088e7" stroke-width="1.5" stroke-linejoin="round"/>
  <circle cx="16" cy="12" r="3.5" stroke="#5088e7" stroke-width="1.5"/>
</svg>
